<!--?xml version="1.0" standalone="no"?-->
              <svg id="sw-js-blob-svg" viewBox="0 0 100 100" xmlns="http://www.w3.org/2000/svg" version="1.1">
                    <defs> 
                        <linearGradient id="sw-gradient" x1="0" x2="1" y1="1" y2="0">
                            <stop id="stop1" stop-color="rgba(17, 54, 66, 1)" offset="0%"></stop>
                            <stop id="stop2" stop-color="rgba(69, 72, 74, 1)" offset="100%"></stop>
                        </linearGradient>
                    </defs>
                <path fill="url(#sw-gradient)" d="M24,-32.3C31.4,-27.7,37.9,-21,39.7,-13.4C41.5,-5.7,38.7,3,35.6,11.3C32.6,19.7,29.3,27.8,23.3,33.1C17.4,38.4,8.7,40.9,0.4,40.3C-7.8,39.7,-15.6,36,-23.4,31.3C-31.1,26.6,-38.7,20.8,-40.6,13.6C-42.4,6.3,-38.5,-2.5,-34.2,-9.7C-29.9,-17,-25.3,-22.7,-19.5,-27.9C-13.8,-33.1,-6.9,-37.8,0.7,-38.8C8.3,-39.7,16.6,-37,24,-32.3Z" width="100%" height="100%" transform="translate(50 50)" stroke-width="0" style="transition: all 0.3s ease 0s;" stroke="url(#sw-gradient)"></path>
              </svg>